<?xml version="1.0" encoding="UTF-8" standalone="no"?>
<!DOCTYPE svg PUBLIC "-//W3C//DTD SVG 1.1//EN"
 "http://www.w3.org/Graphics/SVG/1.1/DTD/svg11.dtd">
<!-- Generated by graphviz version 3.0.0 (20221109.1736)
 -->
<!-- Pages: 1 -->
<svg width="2834pt" height="793pt"
 viewBox="0.00 0.00 2833.50 792.96" xmlns="http://www.w3.org/2000/svg" xmlns:xlink="http://www.w3.org/1999/xlink">
<g id="graph0" class="graph" transform="scale(1 1) rotate(0) translate(36 756.96)">
<polygon fill="white" stroke="transparent" points="-36,36 -36,-756.96 2797.5,-756.96 2797.5,36 -36,36"/>
<!-- postgis -->
<g id="node1" class="node">
<title>postgis</title>
<polygon fill="none" stroke="black" points="2761.5,-125 2168.5,-125 2168.5,-121 2164.5,-121 2164.5,-117 2168.5,-117 2168.5,-95 2164.5,-95 2164.5,-91 2168.5,-91 2168.5,-87 2761.5,-87 2761.5,-125"/>
<polyline fill="none" stroke="black" points="2168.5,-121 2172.5,-121 2172.5,-117 2168.5,-117 "/>
<polyline fill="none" stroke="black" points="2168.5,-95 2172.5,-95 2172.5,-91 2168.5,-91 "/>
<text text-anchor="middle" x="2465" y="-109.8" font-family="Times,serif" font-size="14.00">postgis</text>
<text text-anchor="middle" x="2465" y="-94.8" font-family="Times,serif" font-size="14.00">(build from &#39;postgis&#39;, image: docker.b3p.nl/tailormap/tailormap&#45;data_postgis:snapshot)</text>
</g>
<!-- tailormap&#45;data -->
<g id="node2" class="node">
<title>tailormap&#45;data</title>
<polygon fill="none" stroke="black" points="1736.87,-23.56 1621,-36 1505.13,-23.56 1549.39,-3.44 1692.61,-3.44 1736.87,-23.56"/>
<text text-anchor="middle" x="1621" y="-14.3" font-family="Times,serif" font-size="14.00">net:tailormap&#45;data</text>
</g>
<!-- postgis&#45;&gt;tailormap&#45;data -->
<g id="edge1" class="edge">
<title>postgis&#45;&gt;tailormap&#45;data</title>
<path fill="none" stroke="black" d="M2282.25,-86.97C2144.03,-73.24 1949.55,-53.75 1779,-36 1756.63,-33.67 1732.49,-31.1 1709.97,-28.68"/>
<polygon fill="black" stroke="black" points="1710.07,-25.17 1699.75,-27.58 1709.32,-32.13 1710.07,-25.17"/>
</g>
<!-- tailormap&#45;viewer -->
<g id="node3" class="node">
<title>tailormap&#45;viewer</title>
<polygon fill="none" stroke="black" points="1469.19,-23.56 1340,-36 1210.81,-23.56 1260.16,-3.44 1419.84,-3.44 1469.19,-23.56"/>
<text text-anchor="middle" x="1340" y="-14.3" font-family="Times,serif" font-size="14.00">net:tailormap&#45;viewer</text>
</g>
<!-- postgis&#45;&gt;tailormap&#45;viewer -->
<g id="edge2" class="edge">
<title>postgis&#45;&gt;tailormap&#45;viewer</title>
<path fill="none" stroke="black" d="M2168.21,-87.53C2165.13,-87.35 2162.05,-87.17 2159,-87 2014.57,-78.75 1978.24,-80.03 1834,-69 1683.5,-57.49 1646.14,-51.51 1496,-36 1475.39,-33.87 1453.26,-31.51 1432.32,-29.23"/>
<polygon fill="black" stroke="black" points="1432.48,-25.73 1422.16,-28.13 1431.72,-32.69 1432.48,-25.73"/>
</g>
<!-- postgis&#45;db -->
<g id="node4" class="node">
<title>postgis&#45;db</title>
<path fill="none" stroke="black" d="M2506.5,-32.73C2506.5,-34.53 2487.9,-36 2465,-36 2442.1,-36 2423.5,-34.53 2423.5,-32.73 2423.5,-32.73 2423.5,-3.27 2423.5,-3.27 2423.5,-1.47 2442.1,0 2465,0 2487.9,0 2506.5,-1.47 2506.5,-3.27 2506.5,-3.27 2506.5,-32.73 2506.5,-32.73"/>
<path fill="none" stroke="black" d="M2506.5,-32.73C2506.5,-30.92 2487.9,-29.45 2465,-29.45 2442.1,-29.45 2423.5,-30.92 2423.5,-32.73"/>
<text text-anchor="middle" x="2465" y="-14.3" font-family="Times,serif" font-size="14.00">postgis&#45;db</text>
</g>
<!-- postgis&#45;&gt;postgis&#45;db -->
<g id="edge3" class="edge">
<title>postgis&#45;&gt;postgis&#45;db</title>
<path fill="none" stroke="black" stroke-dasharray="5,2" d="M2465,-76.58C2465,-66.83 2465,-55.95 2465,-46.3"/>
<polygon fill="black" stroke="black" points="2461.5,-76.76 2465,-86.76 2468.5,-76.76 2461.5,-76.76"/>
<polygon fill="black" stroke="black" points="2468.5,-46.04 2465,-36.04 2461.5,-46.04 2468.5,-46.04"/>
<text text-anchor="middle" x="2542" y="-57.8" font-family="Times,serif" font-size="14.00">/var/lib/postgresql/data</text>
</g>
<!-- ${BIND_IP&#45;127.0.0.1}5432 -->
<g id="node5" class="node">
<title>${BIND_IP&#45;127.0.0.1}5432</title>
<ellipse fill="none" stroke="black" cx="2465" cy="-299.49" rx="123.48" ry="123.48"/>
<text text-anchor="middle" x="2465" y="-295.79" font-family="Times,serif" font-size="14.00">${BIND_IP:&#45;127.0.0.1}:5432</text>
</g>
<!-- ${BIND_IP&#45;127.0.0.1}5432&#45;&gt;postgis -->
<g id="edge4" class="edge">
<title>${BIND_IP&#45;127.0.0.1}5432&#45;&gt;postgis</title>
<path fill="none" stroke="black" d="M2465,-175.86C2465,-160.8 2465,-146.71 2465,-135.24"/>
<polygon fill="black" stroke="black" points="2468.5,-135.11 2465,-125.11 2461.5,-135.11 2468.5,-135.11"/>
<text text-anchor="middle" x="2480.5" y="-146.8" font-family="Times,serif" font-size="14.00">5432</text>
</g>
<!-- sqlserver -->
<g id="node6" class="node">
<title>sqlserver</title>
<polygon fill="none" stroke="black" points="2150.5,-125 1525.5,-125 1525.5,-121 1521.5,-121 1521.5,-117 1525.5,-117 1525.5,-95 1521.5,-95 1521.5,-91 1525.5,-91 1525.5,-87 2150.5,-87 2150.5,-125"/>
<polyline fill="none" stroke="black" points="1525.5,-121 1529.5,-121 1529.5,-117 1525.5,-117 "/>
<polyline fill="none" stroke="black" points="1525.5,-95 1529.5,-95 1529.5,-91 1525.5,-91 "/>
<text text-anchor="middle" x="1838" y="-109.8" font-family="Times,serif" font-size="14.00">sqlserver</text>
<text text-anchor="middle" x="1838" y="-94.8" font-family="Times,serif" font-size="14.00">(build from &#39;sqlserver&#39;, image: docker.b3p.nl/tailormap/tailormap&#45;data_sqlserver:snapshot)</text>
</g>
<!-- sqlserver&#45;&gt;tailormap&#45;data -->
<g id="edge5" class="edge">
<title>sqlserver&#45;&gt;tailormap&#45;data</title>
<path fill="none" stroke="black" d="M1792.51,-86.97C1754.86,-72.05 1701.72,-50.99 1664.61,-36.28"/>
<polygon fill="black" stroke="black" points="1665.65,-32.93 1655.06,-32.5 1663.07,-39.44 1665.65,-32.93"/>
</g>
<!-- sqlserver&#45;&gt;tailormap&#45;viewer -->
<g id="edge6" class="edge">
<title>sqlserver&#45;&gt;tailormap&#45;viewer</title>
<path fill="none" stroke="black" d="M1546.28,-86.98C1498.55,-82.12 1456.92,-76.16 1433,-69 1410.87,-62.37 1387.99,-50.15 1370.46,-39.45"/>
<polygon fill="black" stroke="black" points="1372.15,-36.38 1361.81,-34.03 1368.43,-42.31 1372.15,-36.38"/>
</g>
<!-- sqlserver&#45;db -->
<g id="node7" class="node">
<title>sqlserver&#45;db</title>
<path fill="none" stroke="black" d="M1887.5,-32.73C1887.5,-34.53 1865.31,-36 1838,-36 1810.69,-36 1788.5,-34.53 1788.5,-32.73 1788.5,-32.73 1788.5,-3.27 1788.5,-3.27 1788.5,-1.47 1810.69,0 1838,0 1865.31,0 1887.5,-1.47 1887.5,-3.27 1887.5,-3.27 1887.5,-32.73 1887.5,-32.73"/>
<path fill="none" stroke="black" d="M1887.5,-32.73C1887.5,-30.92 1865.31,-29.45 1838,-29.45 1810.69,-29.45 1788.5,-30.92 1788.5,-32.73"/>
<text text-anchor="middle" x="1838" y="-14.3" font-family="Times,serif" font-size="14.00">sqlserver&#45;db</text>
</g>
<!-- sqlserver&#45;&gt;sqlserver&#45;db -->
<g id="edge7" class="edge">
<title>sqlserver&#45;&gt;sqlserver&#45;db</title>
<path fill="none" stroke="black" stroke-dasharray="5,2" d="M1838,-76.58C1838,-66.83 1838,-55.95 1838,-46.3"/>
<polygon fill="black" stroke="black" points="1834.5,-76.76 1838,-86.76 1841.5,-76.76 1834.5,-76.76"/>
<polygon fill="black" stroke="black" points="1841.5,-46.04 1838,-36.04 1834.5,-46.04 1841.5,-46.04"/>
<text text-anchor="middle" x="1885.5" y="-57.8" font-family="Times,serif" font-size="14.00">/var/opt/mssql</text>
</g>
<!-- ${BIND_IP&#45;127.0.0.1}1433 -->
<g id="node8" class="node">
<title>${BIND_IP&#45;127.0.0.1}1433</title>
<ellipse fill="none" stroke="black" cx="1838" cy="-299.49" rx="123.48" ry="123.48"/>
<text text-anchor="middle" x="1838" y="-295.79" font-family="Times,serif" font-size="14.00">${BIND_IP:&#45;127.0.0.1}:1433</text>
</g>
<!-- ${BIND_IP&#45;127.0.0.1}1433&#45;&gt;sqlserver -->
<g id="edge8" class="edge">
<title>${BIND_IP&#45;127.0.0.1}1433&#45;&gt;sqlserver</title>
<path fill="none" stroke="black" d="M1838,-175.86C1838,-160.8 1838,-146.71 1838,-135.24"/>
<polygon fill="black" stroke="black" points="1841.5,-135.11 1838,-125.11 1834.5,-135.11 1841.5,-135.11"/>
<text text-anchor="middle" x="1853.5" y="-146.8" font-family="Times,serif" font-size="14.00">1433</text>
</g>
<!-- oracle -->
<g id="node9" class="node">
<title>oracle</title>
<polygon fill="none" stroke="black" points="1295,-125 711,-125 711,-121 707,-121 707,-117 711,-117 711,-95 707,-95 707,-91 711,-91 711,-87 1295,-87 1295,-125"/>
<polyline fill="none" stroke="black" points="711,-121 715,-121 715,-117 711,-117 "/>
<polyline fill="none" stroke="black" points="711,-95 715,-95 715,-91 711,-91 "/>
<text text-anchor="middle" x="1003" y="-109.8" font-family="Times,serif" font-size="14.00">oracle</text>
<text text-anchor="middle" x="1003" y="-94.8" font-family="Times,serif" font-size="14.00">(build from &#39;oracle&#39;, image: docker.b3p.nl/tailormap/tailormap&#45;data_oracle:snapshot)</text>
</g>
<!-- oracle&#45;&gt;tailormap&#45;data -->
<g id="edge9" class="edge">
<title>oracle&#45;&gt;tailormap&#45;data</title>
<path fill="none" stroke="black" d="M1132.55,-86.97C1256.21,-69.76 1438.54,-44.39 1541.89,-30.01"/>
<polygon fill="black" stroke="black" points="1542.52,-33.45 1551.95,-28.61 1541.56,-26.52 1542.52,-33.45"/>
</g>
<!-- oracle&#45;&gt;tailormap&#45;viewer -->
<g id="edge10" class="edge">
<title>oracle&#45;&gt;tailormap&#45;viewer</title>
<path fill="none" stroke="black" d="M1073.65,-86.97C1135.41,-71.21 1224.01,-48.6 1281.77,-33.86"/>
<polygon fill="black" stroke="black" points="1282.65,-37.25 1291.48,-31.38 1280.92,-30.46 1282.65,-37.25"/>
</g>
<!-- oracle&#45;db -->
<g id="node10" class="node">
<title>oracle&#45;db</title>
<path fill="none" stroke="black" d="M1042.5,-32.73C1042.5,-34.53 1024.8,-36 1003,-36 981.2,-36 963.5,-34.53 963.5,-32.73 963.5,-32.73 963.5,-3.27 963.5,-3.27 963.5,-1.47 981.2,0 1003,0 1024.8,0 1042.5,-1.47 1042.5,-3.27 1042.5,-3.27 1042.5,-32.73 1042.5,-32.73"/>
<path fill="none" stroke="black" d="M1042.5,-32.73C1042.5,-30.92 1024.8,-29.45 1003,-29.45 981.2,-29.45 963.5,-30.92 963.5,-32.73"/>
<text text-anchor="middle" x="1003" y="-14.3" font-family="Times,serif" font-size="14.00">oracle&#45;db</text>
</g>
<!-- oracle&#45;&gt;oracle&#45;db -->
<g id="edge11" class="edge">
<title>oracle&#45;&gt;oracle&#45;db</title>
<path fill="none" stroke="black" stroke-dasharray="5,2" d="M1003,-76.58C1003,-66.83 1003,-55.95 1003,-46.3"/>
<polygon fill="black" stroke="black" points="999.5,-76.76 1003,-86.76 1006.5,-76.76 999.5,-76.76"/>
<polygon fill="black" stroke="black" points="1006.5,-46.04 1003,-36.04 999.5,-46.04 1006.5,-46.04"/>
<text text-anchor="middle" x="1066.5" y="-57.8" font-family="Times,serif" font-size="14.00">/opt/oracle/oradata</text>
</g>
<!-- ${BIND_IP&#45;127.0.0.1}1521 -->
<g id="node11" class="node">
<title>${BIND_IP&#45;127.0.0.1}1521</title>
<ellipse fill="none" stroke="black" cx="898" cy="-299.49" rx="123.48" ry="123.48"/>
<text text-anchor="middle" x="898" y="-295.79" font-family="Times,serif" font-size="14.00">${BIND_IP:&#45;127.0.0.1}:1521</text>
</g>
<!-- ${BIND_IP&#45;127.0.0.1}1521&#45;&gt;oracle -->
<g id="edge12" class="edge">
<title>${BIND_IP&#45;127.0.0.1}1521&#45;&gt;oracle</title>
<path fill="none" stroke="black" d="M957.1,-190.71C968.68,-169.58 979.83,-149.25 988.24,-133.91"/>
<polygon fill="black" stroke="black" points="991.36,-135.5 993.1,-125.05 985.23,-132.13 991.36,-135.5"/>
<text text-anchor="middle" x="998.5" y="-146.8" font-family="Times,serif" font-size="14.00">1521</text>
</g>
<!-- geoserver&#45;builder -->
<g id="node12" class="node">
<title>geoserver&#45;builder</title>
<polygon fill="none" stroke="black" points="693,-125 165,-125 165,-121 161,-121 161,-117 165,-117 165,-95 161,-95 161,-91 165,-91 165,-87 693,-87 693,-125"/>
<polyline fill="none" stroke="black" points="165,-121 169,-121 169,-117 165,-117 "/>
<polyline fill="none" stroke="black" points="165,-95 169,-95 169,-91 165,-91 "/>
<text text-anchor="middle" x="429" y="-109.8" font-family="Times,serif" font-size="14.00">geoserver&#45;builder</text>
<text text-anchor="middle" x="429" y="-94.8" font-family="Times,serif" font-size="14.00">(build from &#39;geoserver&#39;, image: tailormap/tailormap&#45;data_geoserver&#45;builder)</text>
</g>
<!-- geoserver&#45;build&#45;cache -->
<g id="node13" class="node">
<title>geoserver&#45;build&#45;cache</title>
<path fill="none" stroke="black" d="M511,-32.73C511,-34.53 474.25,-36 429,-36 383.75,-36 347,-34.53 347,-32.73 347,-32.73 347,-3.27 347,-3.27 347,-1.47 383.75,0 429,0 474.25,0 511,-1.47 511,-3.27 511,-3.27 511,-32.73 511,-32.73"/>
<path fill="none" stroke="black" d="M511,-32.73C511,-30.92 474.25,-29.45 429,-29.45 383.75,-29.45 347,-30.92 347,-32.73"/>
<text text-anchor="middle" x="429" y="-14.3" font-family="Times,serif" font-size="14.00">geoserver&#45;build&#45;cache</text>
</g>
<!-- geoserver&#45;builder&#45;&gt;geoserver&#45;build&#45;cache -->
<g id="edge13" class="edge">
<title>geoserver&#45;builder&#45;&gt;geoserver&#45;build&#45;cache</title>
<path fill="none" stroke="black" stroke-dasharray="5,2" d="M429,-76.58C429,-66.83 429,-55.95 429,-46.3"/>
<polygon fill="black" stroke="black" points="425.5,-76.76 429,-86.76 432.5,-76.76 425.5,-76.76"/>
<polygon fill="black" stroke="black" points="432.5,-46.04 429,-36.04 425.5,-46.04 432.5,-46.04"/>
<text text-anchor="middle" x="459.5" y="-57.8" font-family="Times,serif" font-size="14.00">/root/.m2</text>
</g>
<!-- geoserver -->
<g id="node14" class="node">
<title>geoserver</title>
<polygon fill="none" stroke="black" points="1672.5,-318.49 1039.5,-318.49 1039.5,-314.49 1035.5,-314.49 1035.5,-310.49 1039.5,-310.49 1039.5,-288.49 1035.5,-288.49 1035.5,-284.49 1039.5,-284.49 1039.5,-280.49 1672.5,-280.49 1672.5,-318.49"/>
<polyline fill="none" stroke="black" points="1039.5,-314.49 1043.5,-314.49 1043.5,-310.49 1039.5,-310.49 "/>
<polyline fill="none" stroke="black" points="1039.5,-288.49 1043.5,-288.49 1043.5,-284.49 1039.5,-284.49 "/>
<text text-anchor="middle" x="1356" y="-303.29" font-family="Times,serif" font-size="14.00">geoserver</text>
<text text-anchor="middle" x="1356" y="-288.29" font-family="Times,serif" font-size="14.00">(build from &#39;geoserver&#39;, image: docker.b3p.nl/tailormap/tailormap&#45;data_geoserver:snapshot)</text>
</g>
<!-- geoserver&#45;&gt;postgis -->
<g id="edge20" class="edge">
<title>geoserver&#45;&gt;postgis</title>
<path fill="none" stroke="black" stroke-dasharray="1,5" d="M1403.42,-280.46C1470.32,-255.36 1596.49,-209.21 1706,-176 1762.22,-158.95 1775.94,-152 1834,-143 1973.75,-121.33 2012.83,-132.71 2158.03,-125.03"/>
<polygon fill="black" stroke="black" points="2158.42,-128.52 2168.21,-124.47 2158.04,-121.53 2158.42,-128.52"/>
</g>
<!-- geoserver&#45;&gt;tailormap&#45;data -->
<g id="edge14" class="edge">
<title>geoserver&#45;&gt;tailormap&#45;data</title>
<path fill="none" stroke="black" d="M1393.9,-280.45C1435.62,-258.24 1500.4,-216.17 1528,-158 1530.86,-151.98 1529.93,-149.38 1528,-143 1525.21,-133.8 1518.79,-134.2 1516,-125 1511.11,-108.84 1507.93,-101.84 1516,-87 1528.57,-63.88 1552.77,-47.41 1574.77,-36.48"/>
<polygon fill="black" stroke="black" points="1576.47,-39.55 1584.03,-32.12 1573.49,-33.21 1576.47,-39.55"/>
</g>
<!-- geoserver&#45;&gt;tailormap&#45;viewer -->
<g id="edge15" class="edge">
<title>geoserver&#45;&gt;tailormap&#45;viewer</title>
<path fill="none" stroke="black" d="M1354.16,-280.28C1351.05,-248.71 1344.82,-181.74 1342,-125 1340.67,-98.27 1340.21,-67.7 1340.05,-46.28"/>
<polygon fill="black" stroke="black" points="1343.55,-46.25 1340,-36.27 1336.55,-46.29 1343.55,-46.25"/>
</g>
<!-- geoserver&#45;&gt;sqlserver -->
<g id="edge22" class="edge">
<title>geoserver&#45;&gt;sqlserver</title>
<path fill="none" stroke="black" stroke-dasharray="1,5" d="M1398.74,-280.42C1469.12,-250.83 1613.98,-190.54 1738,-143 1750.56,-138.18 1764.08,-133.19 1776.99,-128.51"/>
<polygon fill="black" stroke="black" points="1778.5,-131.69 1786.72,-125 1776.13,-125.1 1778.5,-131.69"/>
</g>
<!-- geoserver&#45;&gt;oracle -->
<g id="edge21" class="edge">
<title>geoserver&#45;&gt;oracle</title>
<path fill="none" stroke="black" stroke-dasharray="1,5" d="M1322.79,-280.47C1258.4,-245.55 1116.68,-168.67 1045.52,-130.07"/>
<polygon fill="black" stroke="black" points="1046.84,-126.8 1036.38,-125.11 1043.5,-132.95 1046.84,-126.8"/>
</g>
<!-- geoserver&#45;&gt;geoserver&#45;builder -->
<g id="edge19" class="edge">
<title>geoserver&#45;&gt;geoserver&#45;builder</title>
<path fill="none" stroke="black" stroke-dasharray="1,5" d="M1317.34,-280.4C1257.27,-253.12 1137.26,-201.89 1030,-176 958.46,-158.73 785.15,-139.69 642.93,-126"/>
<polygon fill="black" stroke="black" points="643.03,-122.49 632.74,-125.02 642.36,-129.46 643.03,-122.49"/>
</g>
<!-- traefik -->
<g id="node15" class="node">
<title>traefik</title>
<polygon fill="none" stroke="black" points="146.79,-111.56 77,-124 7.21,-111.56 33.87,-91.44 120.13,-91.44 146.79,-111.56"/>
<text text-anchor="middle" x="77" y="-102.3" font-family="Times,serif" font-size="14.00">net:traefik</text>
</g>
<!-- geoserver&#45;&gt;traefik -->
<g id="edge16" class="edge">
<title>geoserver&#45;&gt;traefik</title>
<path fill="none" stroke="black" d="M1318.97,-280.35C1259.63,-252.25 1138.83,-199.07 1030,-176 934.84,-155.83 252.31,-138.69 156,-125 146.08,-123.59 135.56,-121.57 125.54,-119.39"/>
<polygon fill="black" stroke="black" points="126.26,-115.96 115.74,-117.17 124.72,-122.79 126.26,-115.96"/>
</g>
<!-- geoserver&#45;data -->
<g id="node16" class="node">
<title>geoserver&#45;data</title>
<path fill="none" stroke="black" d="M1468.5,-120.73C1468.5,-122.53 1442.28,-124 1410,-124 1377.72,-124 1351.5,-122.53 1351.5,-120.73 1351.5,-120.73 1351.5,-91.27 1351.5,-91.27 1351.5,-89.47 1377.72,-88 1410,-88 1442.28,-88 1468.5,-89.47 1468.5,-91.27 1468.5,-91.27 1468.5,-120.73 1468.5,-120.73"/>
<path fill="none" stroke="black" d="M1468.5,-120.73C1468.5,-118.92 1442.28,-117.45 1410,-117.45 1377.72,-117.45 1351.5,-118.92 1351.5,-120.73"/>
<text text-anchor="middle" x="1410" y="-102.3" font-family="Times,serif" font-size="14.00">geoserver&#45;data</text>
</g>
<!-- geoserver&#45;&gt;geoserver&#45;data -->
<g id="edge17" class="edge">
<title>geoserver&#45;&gt;geoserver&#45;data</title>
<path fill="none" stroke="black" stroke-dasharray="5,2" d="M1351,-280.4C1343.65,-249.97 1333.23,-187.53 1357,-143 1359.49,-138.34 1362.88,-134.16 1366.76,-130.46"/>
<polygon fill="black" stroke="black" points="1369.21,-132.97 1374.69,-123.91 1364.75,-127.58 1369.21,-132.97"/>
<text text-anchor="middle" x="1442.5" y="-146.8" font-family="Times,serif" font-size="14.00">${GEOSERVER_DATA_DIR</text>
</g>
<!-- ${BIND_IP&#45;127.0.0.1}8080 -->
<g id="node17" class="node">
<title>${BIND_IP&#45;127.0.0.1}8080</title>
<ellipse fill="none" stroke="black" cx="1356" cy="-597.47" rx="123.48" ry="123.48"/>
<text text-anchor="middle" x="1356" y="-593.77" font-family="Times,serif" font-size="14.00">${BIND_IP:&#45;127.0.0.1}:8080</text>
</g>
<!-- ${BIND_IP&#45;127.0.0.1}8080&#45;&gt;geoserver -->
<g id="edge18" class="edge">
<title>${BIND_IP&#45;127.0.0.1}8080&#45;&gt;geoserver</title>
<path fill="none" stroke="black" d="M1356,-473.94C1356,-420.51 1356,-362.5 1356,-328.94"/>
<polygon fill="black" stroke="black" points="1359.5,-328.54 1356,-318.54 1352.5,-328.54 1359.5,-328.54"/>
<text text-anchor="middle" x="1371.5" y="-444.78" font-family="Times,serif" font-size="14.00">8080</text>
</g>
<!-- tiles3d&#45;proxy -->
<g id="node18" class="node">
<title>tiles3d&#45;proxy</title>
<polygon fill="none" stroke="black" points="154,-318.49 0,-318.49 0,-314.49 -4,-314.49 -4,-310.49 0,-310.49 0,-288.49 -4,-288.49 -4,-284.49 0,-284.49 0,-280.49 154,-280.49 154,-318.49"/>
<polyline fill="none" stroke="black" points="0,-314.49 4,-314.49 4,-310.49 0,-310.49 "/>
<polyline fill="none" stroke="black" points="0,-288.49 4,-288.49 4,-284.49 0,-284.49 "/>
<text text-anchor="middle" x="77" y="-303.29" font-family="Times,serif" font-size="14.00">traefik&#45;tiles3d&#45;proxy</text>
<text text-anchor="middle" x="77" y="-288.29" font-family="Times,serif" font-size="14.00">(traefik:3.4.0)</text>
</g>
<!-- tiles3d&#45;proxy&#45;&gt;traefik -->
<g id="edge23" class="edge">
<title>tiles3d&#45;proxy&#45;&gt;traefik</title>
<path fill="none" stroke="black" d="M77,-280.47C77,-246.7 77,-173.71 77,-134.02"/>
<polygon fill="black" stroke="black" points="80.5,-134 77,-124 73.5,-134 80.5,-134"/>
</g>
</g>
</svg>
