<?xml version="1.0" encoding="UTF-8" standalone="no"?>
<!DOCTYPE svg PUBLIC "-//W3C//DTD SVG 1.1//EN"
 "http://www.w3.org/Graphics/SVG/1.1/DTD/svg11.dtd">
<!-- Generated by graphviz version 3.0.0 (20221109.1736)
 -->
<!-- Pages: 1 -->
<svg width="2877pt" height="793pt"
 viewBox="0.00 0.00 2876.50 792.96" xmlns="http://www.w3.org/2000/svg" xmlns:xlink="http://www.w3.org/1999/xlink">
<g id="graph0" class="graph" transform="scale(1 1) rotate(0) translate(36 756.96)">
<polygon fill="white" stroke="transparent" points="-36,36 -36,-756.96 2840.5,-756.96 2840.5,36 -36,36"/>
<!-- postgis -->
<g id="node1" class="node">
<title>postgis</title>
<polygon fill="none" stroke="black" points="599,-125 0,-125 0,-121 -4,-121 -4,-117 0,-117 0,-95 -4,-95 -4,-91 0,-91 0,-87 599,-87 599,-125"/>
<polyline fill="none" stroke="black" points="0,-121 4,-121 4,-117 0,-117 "/>
<polyline fill="none" stroke="black" points="0,-95 4,-95 4,-91 0,-91 "/>
<text text-anchor="middle" x="299.5" y="-109.8" font-family="Times,serif" font-size="14.00">postgis</text>
<text text-anchor="middle" x="299.5" y="-94.8" font-family="Times,serif" font-size="14.00">(build from &#39;postgis&#39;, image: docker.b3p.nl/b3partners/tailormap&#45;data_postgis:snapshot)</text>
</g>
<!-- tailormap&#45;data -->
<g id="node2" class="node">
<title>tailormap&#45;data</title>
<polygon fill="none" stroke="black" points="818.37,-23.56 702.5,-36 586.63,-23.56 630.89,-3.44 774.11,-3.44 818.37,-23.56"/>
<text text-anchor="middle" x="702.5" y="-14.3" font-family="Times,serif" font-size="14.00">net:tailormap&#45;data</text>
</g>
<!-- postgis&#45;&gt;tailormap&#45;data -->
<g id="edge1" class="edge">
<title>postgis&#45;&gt;tailormap&#45;data</title>
<path fill="none" stroke="black" d="M383.98,-86.97C460.21,-70.71 570.62,-47.14 639.41,-32.46"/>
<polygon fill="black" stroke="black" points="640.19,-35.88 649.24,-30.37 638.73,-29.03 640.19,-35.88"/>
</g>
<!-- tailormap&#45;viewer -->
<g id="node3" class="node">
<title>tailormap&#45;viewer</title>
<polygon fill="none" stroke="black" points="1334.69,-23.56 1205.5,-36 1076.31,-23.56 1125.66,-3.44 1285.34,-3.44 1334.69,-23.56"/>
<text text-anchor="middle" x="1205.5" y="-14.3" font-family="Times,serif" font-size="14.00">net:tailormap&#45;viewer</text>
</g>
<!-- postgis&#45;&gt;tailormap&#45;viewer -->
<g id="edge2" class="edge">
<title>postgis&#45;&gt;tailormap&#45;viewer</title>
<path fill="none" stroke="black" d="M489.15,-87C677.43,-69.13 958.71,-42.43 1106.55,-28.39"/>
<polygon fill="black" stroke="black" points="1106.9,-31.88 1116.52,-27.45 1106.24,-24.91 1106.9,-31.88"/>
</g>
<!-- postgis&#45;db -->
<g id="node4" class="node">
<title>postgis&#45;db</title>
<path fill="none" stroke="black" d="M341,-32.73C341,-34.53 322.4,-36 299.5,-36 276.6,-36 258,-34.53 258,-32.73 258,-32.73 258,-3.27 258,-3.27 258,-1.47 276.6,0 299.5,0 322.4,0 341,-1.47 341,-3.27 341,-3.27 341,-32.73 341,-32.73"/>
<path fill="none" stroke="black" d="M341,-32.73C341,-30.92 322.4,-29.45 299.5,-29.45 276.6,-29.45 258,-30.92 258,-32.73"/>
<text text-anchor="middle" x="299.5" y="-14.3" font-family="Times,serif" font-size="14.00">postgis&#45;db</text>
</g>
<!-- postgis&#45;&gt;postgis&#45;db -->
<g id="edge3" class="edge">
<title>postgis&#45;&gt;postgis&#45;db</title>
<path fill="none" stroke="black" stroke-dasharray="5,2" d="M299.5,-76.58C299.5,-66.83 299.5,-55.95 299.5,-46.3"/>
<polygon fill="black" stroke="black" points="296,-76.76 299.5,-86.76 303,-76.76 296,-76.76"/>
<polygon fill="black" stroke="black" points="303,-46.04 299.5,-36.04 296,-46.04 303,-46.04"/>
<text text-anchor="middle" x="376.5" y="-57.8" font-family="Times,serif" font-size="14.00">/var/lib/postgresql/data</text>
</g>
<!-- ${BIND_IP&#45;127.0.0.1}5432 -->
<g id="node5" class="node">
<title>${BIND_IP&#45;127.0.0.1}5432</title>
<ellipse fill="none" stroke="black" cx="299.5" cy="-299.49" rx="123.48" ry="123.48"/>
<text text-anchor="middle" x="299.5" y="-295.79" font-family="Times,serif" font-size="14.00">${BIND_IP:&#45;127.0.0.1}:5432</text>
</g>
<!-- ${BIND_IP&#45;127.0.0.1}5432&#45;&gt;postgis -->
<g id="edge4" class="edge">
<title>${BIND_IP&#45;127.0.0.1}5432&#45;&gt;postgis</title>
<path fill="none" stroke="black" d="M299.5,-175.86C299.5,-160.8 299.5,-146.71 299.5,-135.24"/>
<polygon fill="black" stroke="black" points="303,-135.11 299.5,-125.11 296,-135.11 303,-135.11"/>
<text text-anchor="middle" x="315" y="-146.8" font-family="Times,serif" font-size="14.00">5432</text>
</g>
<!-- sqlserver -->
<g id="node6" class="node">
<title>sqlserver</title>
<polygon fill="none" stroke="black" points="2202.5,-125 1594.5,-125 1594.5,-121 1590.5,-121 1590.5,-117 1594.5,-117 1594.5,-95 1590.5,-95 1590.5,-91 1594.5,-91 1594.5,-87 2202.5,-87 2202.5,-125"/>
<polyline fill="none" stroke="black" points="1594.5,-121 1598.5,-121 1598.5,-117 1594.5,-117 "/>
<polyline fill="none" stroke="black" points="1594.5,-95 1598.5,-95 1598.5,-91 1594.5,-91 "/>
<text text-anchor="middle" x="1898.5" y="-109.8" font-family="Times,serif" font-size="14.00">sqlserver</text>
<text text-anchor="middle" x="1898.5" y="-94.8" font-family="Times,serif" font-size="14.00">(build from &#39;mssql&#39;, image: docker.b3p.nl/b3partners/tailormap&#45;data_sqlserver:snapshot)</text>
</g>
<!-- sqlserver&#45;&gt;tailormap&#45;data -->
<g id="edge5" class="edge">
<title>sqlserver&#45;&gt;tailormap&#45;data</title>
<path fill="none" stroke="black" d="M1621.76,-86.99C1421.85,-73.7 1145.42,-54.74 902.5,-36 868.97,-33.41 832.29,-30.36 799.61,-27.56"/>
<polygon fill="black" stroke="black" points="799.86,-24.07 789.6,-26.7 799.26,-31.04 799.86,-24.07"/>
</g>
<!-- sqlserver&#45;&gt;tailormap&#45;viewer -->
<g id="edge6" class="edge">
<title>sqlserver&#45;&gt;tailormap&#45;viewer</title>
<path fill="none" stroke="black" d="M1753.22,-86.97C1614.14,-69.71 1408.87,-44.24 1293.16,-29.88"/>
<polygon fill="black" stroke="black" points="1293.29,-26.37 1282.93,-28.61 1292.43,-33.31 1293.29,-26.37"/>
</g>
<!-- sqlserver&#45;db -->
<g id="node7" class="node">
<title>sqlserver&#45;db</title>
<path fill="none" stroke="black" d="M1948,-32.73C1948,-34.53 1925.81,-36 1898.5,-36 1871.19,-36 1849,-34.53 1849,-32.73 1849,-32.73 1849,-3.27 1849,-3.27 1849,-1.47 1871.19,0 1898.5,0 1925.81,0 1948,-1.47 1948,-3.27 1948,-3.27 1948,-32.73 1948,-32.73"/>
<path fill="none" stroke="black" d="M1948,-32.73C1948,-30.92 1925.81,-29.45 1898.5,-29.45 1871.19,-29.45 1849,-30.92 1849,-32.73"/>
<text text-anchor="middle" x="1898.5" y="-14.3" font-family="Times,serif" font-size="14.00">sqlserver&#45;db</text>
</g>
<!-- sqlserver&#45;&gt;sqlserver&#45;db -->
<g id="edge7" class="edge">
<title>sqlserver&#45;&gt;sqlserver&#45;db</title>
<path fill="none" stroke="black" stroke-dasharray="5,2" d="M1898.5,-76.58C1898.5,-66.83 1898.5,-55.95 1898.5,-46.3"/>
<polygon fill="black" stroke="black" points="1895,-76.76 1898.5,-86.76 1902,-76.76 1895,-76.76"/>
<polygon fill="black" stroke="black" points="1902,-46.04 1898.5,-36.04 1895,-46.04 1902,-46.04"/>
<text text-anchor="middle" x="1946" y="-57.8" font-family="Times,serif" font-size="14.00">/var/opt/mssql</text>
</g>
<!-- ${BIND_IP&#45;127.0.0.1}1433 -->
<g id="node8" class="node">
<title>${BIND_IP&#45;127.0.0.1}1433</title>
<ellipse fill="none" stroke="black" cx="1898.5" cy="-299.49" rx="123.48" ry="123.48"/>
<text text-anchor="middle" x="1898.5" y="-295.79" font-family="Times,serif" font-size="14.00">${BIND_IP:&#45;127.0.0.1}:1433</text>
</g>
<!-- ${BIND_IP&#45;127.0.0.1}1433&#45;&gt;sqlserver -->
<g id="edge8" class="edge">
<title>${BIND_IP&#45;127.0.0.1}1433&#45;&gt;sqlserver</title>
<path fill="none" stroke="black" d="M1898.5,-175.86C1898.5,-160.8 1898.5,-146.71 1898.5,-135.24"/>
<polygon fill="black" stroke="black" points="1902,-135.11 1898.5,-125.11 1895,-135.11 1902,-135.11"/>
<text text-anchor="middle" x="1914" y="-146.8" font-family="Times,serif" font-size="14.00">1433</text>
</g>
<!-- oracle -->
<g id="node9" class="node">
<title>oracle</title>
<polygon fill="none" stroke="black" points="1245.5,-125 655.5,-125 655.5,-121 651.5,-121 651.5,-117 655.5,-117 655.5,-95 651.5,-95 651.5,-91 655.5,-91 655.5,-87 1245.5,-87 1245.5,-125"/>
<polyline fill="none" stroke="black" points="655.5,-121 659.5,-121 659.5,-117 655.5,-117 "/>
<polyline fill="none" stroke="black" points="655.5,-95 659.5,-95 659.5,-91 655.5,-91 "/>
<text text-anchor="middle" x="950.5" y="-109.8" font-family="Times,serif" font-size="14.00">oracle</text>
<text text-anchor="middle" x="950.5" y="-94.8" font-family="Times,serif" font-size="14.00">(build from &#39;oracle&#39;, image: docker.b3p.nl/b3partners/tailormap&#45;data_oracle:snapshot)</text>
</g>
<!-- oracle&#45;&gt;tailormap&#45;data -->
<g id="edge9" class="edge">
<title>oracle&#45;&gt;tailormap&#45;data</title>
<path fill="none" stroke="black" d="M898.51,-86.97C854.63,-71.76 792.34,-50.15 749.83,-35.41"/>
<polygon fill="black" stroke="black" points="750.87,-32.07 740.28,-32.1 748.58,-38.68 750.87,-32.07"/>
</g>
<!-- oracle&#45;&gt;tailormap&#45;viewer -->
<g id="edge10" class="edge">
<title>oracle&#45;&gt;tailormap&#45;viewer</title>
<path fill="none" stroke="black" d="M1022,-86.95C1041.44,-81.61 1062.39,-75.45 1081.5,-69 1109.53,-59.53 1140.38,-47.1 1164.3,-37"/>
<polygon fill="black" stroke="black" points="1165.93,-40.11 1173.76,-32.97 1163.19,-33.67 1165.93,-40.11"/>
</g>
<!-- oracle&#45;db -->
<g id="node10" class="node">
<title>oracle&#45;db</title>
<path fill="none" stroke="black" d="M990,-32.73C990,-34.53 972.3,-36 950.5,-36 928.7,-36 911,-34.53 911,-32.73 911,-32.73 911,-3.27 911,-3.27 911,-1.47 928.7,0 950.5,0 972.3,0 990,-1.47 990,-3.27 990,-3.27 990,-32.73 990,-32.73"/>
<path fill="none" stroke="black" d="M990,-32.73C990,-30.92 972.3,-29.45 950.5,-29.45 928.7,-29.45 911,-30.92 911,-32.73"/>
<text text-anchor="middle" x="950.5" y="-14.3" font-family="Times,serif" font-size="14.00">oracle&#45;db</text>
</g>
<!-- oracle&#45;&gt;oracle&#45;db -->
<g id="edge11" class="edge">
<title>oracle&#45;&gt;oracle&#45;db</title>
<path fill="none" stroke="black" stroke-dasharray="5,2" d="M950.5,-76.58C950.5,-66.83 950.5,-55.95 950.5,-46.3"/>
<polygon fill="black" stroke="black" points="947,-76.76 950.5,-86.76 954,-76.76 947,-76.76"/>
<polygon fill="black" stroke="black" points="954,-46.04 950.5,-36.04 947,-46.04 954,-46.04"/>
<text text-anchor="middle" x="1014" y="-57.8" font-family="Times,serif" font-size="14.00">/opt/oracle/oradata</text>
</g>
<!-- ${BIND_IP&#45;127.0.0.1}1521 -->
<g id="node11" class="node">
<title>${BIND_IP&#45;127.0.0.1}1521</title>
<ellipse fill="none" stroke="black" cx="932.5" cy="-299.49" rx="123.48" ry="123.48"/>
<text text-anchor="middle" x="932.5" y="-295.79" font-family="Times,serif" font-size="14.00">${BIND_IP:&#45;127.0.0.1}:1521</text>
</g>
<!-- ${BIND_IP&#45;127.0.0.1}1521&#45;&gt;oracle -->
<g id="edge12" class="edge">
<title>${BIND_IP&#45;127.0.0.1}1521&#45;&gt;oracle</title>
<path fill="none" stroke="black" d="M943.98,-176.4C945.4,-161.25 946.74,-147.04 947.82,-135.49"/>
<polygon fill="black" stroke="black" points="951.33,-135.55 948.78,-125.27 944.36,-134.9 951.33,-135.55"/>
<text text-anchor="middle" x="962" y="-146.8" font-family="Times,serif" font-size="14.00">1521</text>
</g>
<!-- geoserver&#45;builder -->
<g id="node12" class="node">
<title>geoserver&#45;builder</title>
<polygon fill="none" stroke="black" points="2804.5,-125 2220.5,-125 2220.5,-121 2216.5,-121 2216.5,-117 2220.5,-117 2220.5,-95 2216.5,-95 2216.5,-91 2220.5,-91 2220.5,-87 2804.5,-87 2804.5,-125"/>
<polyline fill="none" stroke="black" points="2220.5,-121 2224.5,-121 2224.5,-117 2220.5,-117 "/>
<polyline fill="none" stroke="black" points="2220.5,-95 2224.5,-95 2224.5,-91 2220.5,-91 "/>
<text text-anchor="middle" x="2512.5" y="-109.8" font-family="Times,serif" font-size="14.00">geoserver&#45;builder</text>
<text text-anchor="middle" x="2512.5" y="-94.8" font-family="Times,serif" font-size="14.00">(build from &#39;geoserver&#39;, image: ghcr.io/b3partners/tailormap&#45;data_geoserver&#45;builder)</text>
</g>
<!-- geoserver&#45;build&#45;cache -->
<g id="node13" class="node">
<title>geoserver&#45;build&#45;cache</title>
<path fill="none" stroke="black" d="M2594.5,-32.73C2594.5,-34.53 2557.75,-36 2512.5,-36 2467.25,-36 2430.5,-34.53 2430.5,-32.73 2430.5,-32.73 2430.5,-3.27 2430.5,-3.27 2430.5,-1.47 2467.25,0 2512.5,0 2557.75,0 2594.5,-1.47 2594.5,-3.27 2594.5,-3.27 2594.5,-32.73 2594.5,-32.73"/>
<path fill="none" stroke="black" d="M2594.5,-32.73C2594.5,-30.92 2557.75,-29.45 2512.5,-29.45 2467.25,-29.45 2430.5,-30.92 2430.5,-32.73"/>
<text text-anchor="middle" x="2512.5" y="-14.3" font-family="Times,serif" font-size="14.00">geoserver&#45;build&#45;cache</text>
</g>
<!-- geoserver&#45;builder&#45;&gt;geoserver&#45;build&#45;cache -->
<g id="edge13" class="edge">
<title>geoserver&#45;builder&#45;&gt;geoserver&#45;build&#45;cache</title>
<path fill="none" stroke="black" stroke-dasharray="5,2" d="M2512.5,-76.58C2512.5,-66.83 2512.5,-55.95 2512.5,-46.3"/>
<polygon fill="black" stroke="black" points="2509,-76.76 2512.5,-86.76 2516,-76.76 2509,-76.76"/>
<polygon fill="black" stroke="black" points="2516,-46.04 2512.5,-36.04 2509,-46.04 2516,-46.04"/>
<text text-anchor="middle" x="2543" y="-57.8" font-family="Times,serif" font-size="14.00">/root/.m2</text>
</g>
<!-- geoserver -->
<g id="node14" class="node">
<title>geoserver</title>
<polygon fill="none" stroke="black" points="1669,-318.49 1074,-318.49 1074,-314.49 1070,-314.49 1070,-310.49 1074,-310.49 1074,-288.49 1070,-288.49 1070,-284.49 1074,-284.49 1074,-280.49 1669,-280.49 1669,-318.49"/>
<polyline fill="none" stroke="black" points="1074,-314.49 1078,-314.49 1078,-310.49 1074,-310.49 "/>
<polyline fill="none" stroke="black" points="1074,-288.49 1078,-288.49 1078,-284.49 1074,-284.49 "/>
<text text-anchor="middle" x="1371.5" y="-303.29" font-family="Times,serif" font-size="14.00">geoserver</text>
<text text-anchor="middle" x="1371.5" y="-288.29" font-family="Times,serif" font-size="14.00">(build from &#39;geoserver&#39;, image: ghcr.io/b3partners/tailormap&#45;data_geoserver:snapshot)</text>
</g>
<!-- geoserver&#45;&gt;postgis -->
<g id="edge20" class="edge">
<title>geoserver&#45;&gt;postgis</title>
<path fill="none" stroke="black" stroke-dasharray="1,5" d="M1337.27,-280.32C1281.8,-251.94 1168.05,-198.05 1064.5,-176 966.4,-155.11 713.3,-168.06 613.5,-158 542.45,-150.84 463.07,-137.9 401.9,-126.85"/>
<polygon fill="black" stroke="black" points="402.32,-123.37 391.85,-125.02 401.06,-130.26 402.32,-123.37"/>
</g>
<!-- geoserver&#45;&gt;tailormap&#45;data -->
<g id="edge14" class="edge">
<title>geoserver&#45;&gt;tailormap&#45;data</title>
<path fill="none" stroke="black" d="M1335.2,-280.42C1278.78,-253.16 1165.96,-201.96 1064.5,-176 973.84,-152.8 708.53,-195.06 646.5,-125 624.09,-99.69 652.66,-63.83 676.54,-40.99"/>
<polygon fill="black" stroke="black" points="679.07,-43.41 684.06,-34.06 674.33,-38.27 679.07,-43.41"/>
</g>
<!-- geoserver&#45;&gt;tailormap&#45;viewer -->
<g id="edge15" class="edge">
<title>geoserver&#45;&gt;tailormap&#45;viewer</title>
<path fill="none" stroke="black" d="M1362.34,-280.25C1343.49,-243.09 1298.41,-156.29 1254.5,-87 1245.01,-72.02 1233.45,-55.89 1223.94,-43.1"/>
<polygon fill="black" stroke="black" points="1226.54,-40.73 1217.74,-34.84 1220.94,-44.94 1226.54,-40.73"/>
</g>
<!-- geoserver&#45;&gt;sqlserver -->
<g id="edge22" class="edge">
<title>geoserver&#45;&gt;sqlserver</title>
<path fill="none" stroke="black" stroke-dasharray="1,5" d="M1421.08,-280.47C1518.48,-245.08 1734.42,-166.62 1839.19,-128.55"/>
<polygon fill="black" stroke="black" points="1840.47,-131.81 1848.67,-125.11 1838.07,-125.23 1840.47,-131.81"/>
</g>
<!-- geoserver&#45;&gt;oracle -->
<g id="edge21" class="edge">
<title>geoserver&#45;&gt;oracle</title>
<path fill="none" stroke="black" stroke-dasharray="1,5" d="M1331.89,-280.47C1254.63,-245.33 1084.01,-167.72 999.66,-129.36"/>
<polygon fill="black" stroke="black" points="1000.86,-126.06 990.31,-125.11 997.96,-132.43 1000.86,-126.06"/>
</g>
<!-- geoserver&#45;&gt;geoserver&#45;builder -->
<g id="edge19" class="edge">
<title>geoserver&#45;&gt;geoserver&#45;builder</title>
<path fill="none" stroke="black" stroke-dasharray="1,5" d="M1426.85,-280.4C1503.02,-255.71 1644.59,-210.6 1766.5,-176 1823.02,-159.96 1836.45,-152.04 1894.5,-143 2030.67,-121.79 2068.85,-132.67 2209.84,-125.07"/>
<polygon fill="black" stroke="black" points="2210.38,-128.55 2220.17,-124.49 2209.99,-121.56 2210.38,-128.55"/>
</g>
<!-- traefik -->
<g id="node15" class="node">
<title>traefik</title>
<polygon fill="none" stroke="black" points="1441.29,-111.56 1371.5,-124 1301.71,-111.56 1328.37,-91.44 1414.63,-91.44 1441.29,-111.56"/>
<text text-anchor="middle" x="1371.5" y="-102.3" font-family="Times,serif" font-size="14.00">net:traefik</text>
</g>
<!-- geoserver&#45;&gt;traefik -->
<g id="edge16" class="edge">
<title>geoserver&#45;&gt;traefik</title>
<path fill="none" stroke="black" d="M1371.5,-280.47C1371.5,-246.7 1371.5,-173.71 1371.5,-134.02"/>
<polygon fill="black" stroke="black" points="1375,-134 1371.5,-124 1368,-134 1375,-134"/>
</g>
<!-- geoserver&#45;data -->
<g id="node16" class="node">
<title>geoserver&#45;data</title>
<path fill="none" stroke="black" d="M1576,-120.73C1576,-122.53 1549.78,-124 1517.5,-124 1485.22,-124 1459,-122.53 1459,-120.73 1459,-120.73 1459,-91.27 1459,-91.27 1459,-89.47 1485.22,-88 1517.5,-88 1549.78,-88 1576,-89.47 1576,-91.27 1576,-91.27 1576,-120.73 1576,-120.73"/>
<path fill="none" stroke="black" d="M1576,-120.73C1576,-118.92 1549.78,-117.45 1517.5,-117.45 1485.22,-117.45 1459,-118.92 1459,-120.73"/>
<text text-anchor="middle" x="1517.5" y="-102.3" font-family="Times,serif" font-size="14.00">geoserver&#45;data</text>
</g>
<!-- geoserver&#45;&gt;geoserver&#45;data -->
<g id="edge17" class="edge">
<title>geoserver&#45;&gt;geoserver&#45;data</title>
<path fill="none" stroke="black" stroke-dasharray="5,2" d="M1385.24,-280.47C1411.37,-246.2 1468.31,-171.52 1498.24,-132.27"/>
<polygon fill="black" stroke="black" points="1501.26,-134.08 1504.54,-124 1495.69,-129.83 1501.26,-134.08"/>
<text text-anchor="middle" x="1575" y="-146.8" font-family="Times,serif" font-size="14.00">${GEOSERVER_DATA_DIR</text>
</g>
<!-- ${BIND_IP&#45;127.0.0.1}8080 -->
<g id="node17" class="node">
<title>${BIND_IP&#45;127.0.0.1}8080</title>
<ellipse fill="none" stroke="black" cx="1371.5" cy="-597.47" rx="123.48" ry="123.48"/>
<text text-anchor="middle" x="1371.5" y="-593.77" font-family="Times,serif" font-size="14.00">${BIND_IP:&#45;127.0.0.1}:8080</text>
</g>
<!-- ${BIND_IP&#45;127.0.0.1}8080&#45;&gt;geoserver -->
<g id="edge18" class="edge">
<title>${BIND_IP&#45;127.0.0.1}8080&#45;&gt;geoserver</title>
<path fill="none" stroke="black" d="M1371.5,-473.94C1371.5,-420.51 1371.5,-362.5 1371.5,-328.94"/>
<polygon fill="black" stroke="black" points="1375,-328.54 1371.5,-318.54 1368,-328.54 1375,-328.54"/>
<text text-anchor="middle" x="1387" y="-444.78" font-family="Times,serif" font-size="14.00">8080</text>
</g>
</g>
</svg>
